<?xml version="1.0" encoding="utf-8"?>
<!-- Generator: Adobe Illustrator 17.0.0, SVG Export Plug-In . SVG Version: 6.00 Build 0)  -->
<!DOCTYPE svg PUBLIC "-//W3C//DTD SVG 1.1//EN" "http://www.w3.org/Graphics/SVG/1.1/DTD/svg11.dtd">
<svg version="1.1" xmlns="http://www.w3.org/2000/svg" xmlns:xlink="http://www.w3.org/1999/xlink" x="0px" y="0px" width="612px"
	 height="1224.721px" viewBox="0 0 612 1224.721" enable-background="new 0 0 612 1224.721" xml:space="preserve">
<g id="Layer_1">
	<linearGradient id="SVGID_1_" gradientUnits="userSpaceOnUse" x1="306" y1="1224.7209" x2="306" y2="-1.373792e-008">
		<stop  offset="0" style="stop-color:#FFF33B"/>
		<stop  offset="0.0299" style="stop-color:#FFDF2F"/>
		<stop  offset="0.0722" style="stop-color:#FFCC23"/>
		<stop  offset="0.1154" style="stop-color:#FCBD1B"/>
		<stop  offset="0.1597" style="stop-color:#FBB518"/>
		<stop  offset="0.207" style="stop-color:#FAB217"/>
		<stop  offset="0.4075" style="stop-color:#F3903F"/>
		<stop  offset="0.7103" style="stop-color:#523B92"/>
		<stop  offset="1" style="stop-color:#2A2877"/>
	</linearGradient>
	<rect fill="url(#SVGID_1_)" stroke="#000000" stroke-miterlimit="10" width="612" height="1224.721"/>
</g>
<g id="Layer_2">
	<polygon fill="#FFF33B" stroke="#F7941E" stroke-miterlimit="10" points="184.618,375.345 190.561,360.94 198.422,374.625 
		214.009,376.072 203.588,387.587 207.278,402.885 192.977,396.317 179.671,404.324 181.253,388.751 169.339,378.401 	"/>
	<polygon fill="#FFF33B" stroke="#F7941E" stroke-miterlimit="10" points="526.163,76.514 537.164,72.948 536.843,83.587 
		543.962,92.021 532.763,95.03 526.163,103.809 519.563,95.03 508.364,92.021 515.484,83.587 515.163,72.948 	"/>
	<polygon fill="#FFF33B" stroke="#F7941E" stroke-miterlimit="10" points="411.503,448.865 417.381,445.775 416.258,452.32 
		421.013,456.955 414.442,457.91 411.503,463.865 408.564,457.91 401.992,456.955 406.748,452.32 405.625,445.775 	"/>
	<polygon fill="#FFF33B" stroke="#F7941E" stroke-miterlimit="10" points="457.468,275.351 471.881,267.284 469.129,284.371 
		480.789,296.471 464.675,298.964 457.468,314.509 450.261,298.964 434.146,296.471 445.807,284.371 443.054,267.284 	"/>
	<polygon fill="#FFF33B" stroke="#F7941E" stroke-miterlimit="10" points="362.079,370.225 374.202,363.786 371.887,377.423 
		381.695,387.081 368.14,389.071 362.079,401.479 356.017,389.071 342.462,387.081 352.27,377.423 349.955,363.786 	"/>
	<polygon fill="#FFF33B" stroke="#F7941E" stroke-miterlimit="10" points="485.132,380.43 491.01,377.34 489.887,383.885 
		494.642,388.521 488.071,389.476 485.132,395.43 482.193,389.476 475.621,388.521 480.377,383.885 479.254,377.34 	"/>
	<polygon fill="#FFF33B" stroke="#F7941E" stroke-miterlimit="10" points="67.245,412.187 73.123,409.097 72,415.642 
		76.755,420.278 70.184,421.233 67.245,427.187 64.306,421.233 57.734,420.278 62.489,415.642 61.367,409.097 	"/>
	<polygon fill="#FFF33B" stroke="#F7941E" stroke-miterlimit="10" points="209.846,284.942 215.724,281.852 214.602,288.397 
		219.357,293.032 212.785,293.987 209.846,299.942 206.907,293.987 200.336,293.032 205.091,288.397 203.969,281.852 	"/>
	<polygon fill="#FFF33B" stroke="#F7941E" stroke-miterlimit="10" points="174.369,107.14 189.014,99.753 186.217,115.398 
		198.066,126.477 181.692,128.759 174.369,142.993 167.046,128.759 150.672,126.477 162.521,115.398 159.724,99.753 	"/>
	<polygon fill="#FFF33B" stroke="#F7941E" stroke-miterlimit="10" points="100.483,219.067 112.492,215.502 112.141,226.14 
		119.913,234.574 107.688,237.584 100.483,246.362 93.278,237.584 81.052,234.574 88.825,226.14 88.474,215.502 	"/>
	<polygon fill="#FFF33B" stroke="#F7941E" stroke-miterlimit="10" points="86.675,308.555 92.553,305.464 91.43,312.009 
		96.186,316.645 89.614,317.6 86.675,323.555 83.736,317.6 77.165,316.645 81.92,312.009 80.797,305.464 	"/>
	<polygon fill="#FFF33B" stroke="#F7941E" stroke-miterlimit="10" points="321.064,57.403 335.478,49.336 332.725,66.422 
		344.386,78.522 328.271,81.015 321.064,96.561 313.857,81.015 297.743,78.522 309.403,66.422 306.651,49.336 	"/>
	<polygon fill="#FFF33B" stroke="#F7941E" stroke-miterlimit="10" points="364.882,193.954 378.738,190.617 372.213,204.413 
		378.774,217.48 364.911,215.687 355.111,227.1 353.068,212.196 340.449,206.182 353.05,198.764 355.052,183.634 	"/>
	<polygon fill="#FFF33B" stroke="#F7941E" stroke-miterlimit="10" points="527.795,227.809 533.673,224.719 532.55,231.264 
		537.305,235.899 530.734,236.854 527.795,242.809 524.856,236.854 518.284,235.899 523.039,231.264 521.917,224.719 	"/>
	<polygon fill="#FFF33B" stroke="#F7941E" stroke-miterlimit="10" points="443.657,64.333 449.535,61.243 448.412,67.788 
		453.168,72.424 446.596,73.379 443.657,79.333 440.718,73.379 434.146,72.424 438.902,67.788 437.779,61.243 	"/>
	<polygon fill="#FFF33B" stroke="#F7941E" stroke-miterlimit="10" points="90.972,66.993 96.85,63.903 95.728,70.448 
		100.483,75.083 93.911,76.038 90.972,81.993 88.033,76.038 81.462,75.083 86.217,70.448 85.094,63.903 	"/>
	<polygon fill="#FFF33B" stroke="#F7941E" stroke-miterlimit="10" points="276.061,249.247 288.185,242.809 285.869,256.446 
		295.677,266.104 282.123,268.094 276.061,280.501 269.999,268.094 256.445,266.104 266.253,256.446 263.938,242.809 	"/>
	<polygon fill="#FFF33B" stroke="#F7941E" stroke-miterlimit="10" points="457.468,159.862 463.346,156.772 462.223,163.317 
		466.979,167.952 460.407,168.907 457.468,174.862 454.529,168.907 447.957,167.952 452.713,163.317 451.59,156.772 	"/>
	<polygon fill="#FFF33B" stroke="#F7941E" stroke-miterlimit="10" points="228.867,186.724 234.745,183.634 233.623,190.179 
		238.378,194.815 231.806,195.77 228.867,201.724 225.929,195.77 219.357,194.815 224.112,190.179 222.99,183.634 	"/>
</g>
</svg>
