<?xml version="1.0" encoding="utf-8"?>
<!-- Generator: Adobe Illustrator 17.0.0, SVG Export Plug-In . SVG Version: 6.00 Build 0)  -->
<!DOCTYPE svg PUBLIC "-//W3C//DTD SVG 1.1//EN" "http://www.w3.org/Graphics/SVG/1.1/DTD/svg11.dtd">
<svg version="1.1" id="Layer_1" xmlns="http://www.w3.org/2000/svg" xmlns:xlink="http://www.w3.org/1999/xlink" x="0px" y="0px"
	 width="612px" height="792px" viewBox="0 0 612 792" enable-background="new 0 0 612 792" xml:space="preserve">
<g>
	<path fill="#0F6433" d="M54,37c-19,21-30.5,38.5-8.5,55.5C33.5,112.5,25,145,57,161c-14,11-18,18-21,35c-1,6-6,21-3,26
		c3,7,13,5,15,10s-19,24-20,32c0,5,3,18,5,22c3,8,13,9,15,16c3,12-9,27-12,38c-3,14-1,31,3,44c2,7,5,10,8,15c4,9,4,2,4,13
		c-1,14-17,25.5-14,40.5c2,7,11.5,16.5,16.5,20.5c-16,28-36.5,70,3.5,86c-18,13-37,72-2,73c-11,27-12,56,4,79c6,9,16,18,29,17
		c14-1,13-8,12-22c27-3,36-33,10-49c26,3,23-57-4-59c9,1,21-22,21-31c0-15-5-28.5-15-36.5c3-5,7.572-15.398,5.572-21.398
		c27-7,17.428-27.602,0.428-50.602c29-17,2-47.5-9-61.5c32-10,28-48,2-64c12,2,15-7,15-17c0-6,1-11-4-16c-4-5-12-2-15-5
		c-11-10,2-10,6-22c4-13-3-24-15-29c26.5-23,15-37,6.5-63c31.934-24.5,10-57,1-69c9.5-24.5-16.431-29.585-10-37.5c13-16,15-21,8-32
		C94.5,28.5,61-2,54,37"/>
	<g>
		<path d="M52.232,35.232c-8.258,9.175-17.491,19.242-20.565,31.541c-2.81,11.242,3.623,20.745,12.065,27.495
			c-0.13-1.01-0.261-2.02-0.391-3.03c-6.698,11.314-11.467,24.258-11.072,37.56c0.461,15.498,10.076,27.438,23.468,34.36
			c-0.169-1.309-0.337-2.618-0.506-3.926c-7.811,6.203-14.381,12.885-18.112,22.269c-1.86,4.678-2.777,9.699-3.676,14.629
			c-0.925,5.078-2.449,10.023-3.306,15.121c-1.505,8.943,0.521,15.632,9.578,18.749c1.912,0.658,4.084,1.014,5.636,2.402
			c0.793,0.709-0.507,2.421-0.884,3.086c-2.235,3.948-5.358,7.437-8.188,10.958c-4.163,5.179-11.187,11.99-10.703,19.186
			c0.521,7.741,2.255,19.138,7.426,25.308c2.958,3.529,7.071,5.48,10.462,8.5c4.921,4.382,1.81,12.735-0.158,17.837
			c-2.208,5.726-5.344,11.068-7.775,16.7c-2.4,5.559-3.104,11.388-3.411,17.395c-0.661,12.967,1.337,28.002,7.015,39.779
			c1.149,2.383,2.745,4.556,4.208,6.75c1.482,2.221,2.432,4.72,3.989,6.886c2.259,3.144,1.311,7.9,0.291,11.54
			c-3.214,11.459-12.937,19.713-13.498,32.165c-0.472,10.487,10.21,20.23,17.605,26.276c-0.13-1.01-0.261-2.02-0.391-3.03
			c-8.901,15.618-17.74,32.289-19.786,50.411c-2.092,18.528,8.04,32.321,24.78,39.261c-0.199-1.523-0.398-3.046-0.597-4.569
			C36.322,571.336,15.779,632.726,55,634.5c-0.804-1.055-1.607-2.11-2.411-3.165c-11.355,28.431-12.159,61.133,7.972,85.886
			c8.193,10.074,21.062,15.874,33.923,12.185c10.417-2.988,8.62-15.043,8.016-23.406c-0.833,0.833-1.667,1.667-2.5,2.5
			c12.38-1.594,23.57-8.477,27.164-20.976c3.872-13.466-5.067-25.769-15.902-32.683c-0.421,1.553-0.841,3.106-1.262,4.659
			c16.163,1.489,20.919-16.962,20.399-29.674c-0.596-14.571-7.908-32.734-24.399-34.326c0,1.667,0,3.333,0,5
			c5.542,0.24,9.975-4.494,13.021-8.573c4.296-5.754,7.627-12.338,9.592-19.253c2.09-7.358,0.509-15.888-1.518-23.08
			c-2.278-8.088-6.874-15.477-13.328-20.862c0.13,1.01,0.261,2.02,0.391,3.03c3.887-6.679,7.895-15.47,5.824-23.324
			c-0.582,1.025-1.164,2.05-1.746,3.075c9.948-2.74,18.835-8.463,18.711-19.767c-0.137-12.589-9.73-24.895-16.79-34.507
			c-0.299,1.14-0.598,2.28-0.897,3.421c12.112-7.409,16.745-18.957,12.432-32.539c-3.96-12.47-12.966-22.796-20.926-32.888
			c-0.368,1.393-0.735,2.786-1.103,4.178c14.442-4.751,24.423-16.099,24.592-31.651c0.165-15.193-9.551-29.032-21.994-36.918
			c-0.421,1.553-0.841,3.106-1.262,4.659c11.507,1.531,16.687-6.554,17.434-17.027c0.416-5.824,0.669-12-2.243-17.231
			c-2.998-5.385-8.091-6.69-13.767-7.127c-3.215-0.247-5.959-2.059-7.153-5.207c-0.635-1.673,2.039-3.643,3.025-4.628
			c4.272-4.266,7.083-8.833,8.049-14.87c1.983-12.394-6.222-22.769-17.083-27.57c0.169,1.309,0.337,2.618,0.506,3.926
			c9.293-8.219,17.348-18.125,17.157-31.113c-0.174-11.827-6.365-23.313-10.014-34.32c-0.214,0.811-0.429,1.622-0.643,2.432
			c8.79-6.943,15.444-15.939,17.095-27.214c1.312-8.962-0.941-17.846-4.43-26.052c-1.596-3.755-3.606-7.331-5.757-10.792
			c-0.929-1.494-1.917-2.95-2.921-4.394c-1.484-2.137-2.11-2.199-1.432-4.294c2.515-7.772,1.19-15.816-3.543-22.397
			c-1.537-2.137-9.647-8.605-7.947-11.425c4.732-7.85,13.97-14.725,12.474-25.021c-1.031-7.096-6.162-13.276-10.846-18.423
			c-5.155-5.665-11.262-10.8-18.103-14.296c-5.316-2.716-12.044-4.416-17.7-1.683c-7.378,3.565-10.131,12.083-11.57,19.559
			c-0.606,3.15,4.212,4.493,4.821,1.329c1.54-7.998,4.735-17.843,14.525-17.214c7.474,0.48,14.64,6.448,19.901,11.244
			c5.425,4.945,11.191,11.126,13.595,18.2c1.437,4.229-0.355,8.162-2.5,11.774c-1.694,2.852-3.778,5.495-5.82,8.1
			c-1.291,1.647-3.127,3.306-3.806,5.364c-1.601,4.849,3.173,8.808,6.078,11.965c6.208,6.746,8.068,14.028,5.198,22.897
			c-1.127,3.481,1.397,5.429,3.308,8.224c2.379,3.479,4.502,7.122,6.38,10.893c4.387,8.811,6.763,18.84,4.638,28.597
			c-1.951,8.96-8.171,15.99-15.175,21.524c-0.652,0.515-0.895,1.672-0.643,2.432c3.354,10.116,8.51,20.236,9.702,30.928
			c1.384,12.415-6.84,21.928-15.559,29.64c-1.12,0.991-0.933,3.291,0.506,3.926c11.031,4.875,18.567,16.019,13.079,28.058
			c-2.445,5.364-12.587,10.398-8.828,17.379c1.843,3.422,4.755,6.424,8.642,7.201c6.26,1.251,11.377,0.551,13.589,8.191
			c1.367,4.721,0.572,11.875-0.546,16.595c-1.423,6.009-5.972,7.677-11.675,6.918c-2.638-0.351-3.163,3.454-1.262,4.659
			c10.942,6.934,18.845,18.432,19.498,31.581c0.676,13.602-8.475,23.762-20.901,27.85c-1.924,0.633-2.275,2.692-1.103,4.178
			c12.442,15.774,34.502,42.283,9.506,57.574c-1.07,0.654-1.716,2.305-0.897,3.421c6.185,8.421,12.723,17.43,15.454,27.665
			c2.909,10.901-4.753,16.611-14.388,19.265c-1.324,0.365-2.093,1.758-1.746,3.075c1.694,6.427-2.163,14.048-5.32,19.471
			c-0.527,0.905-0.463,2.317,0.391,3.03c10.2,8.51,16.703,24.875,13.797,38.139c-1.175,5.364-3.79,10.446-6.632,15.098
			c-2.236,3.659-6.417,10.211-11.397,9.995c-3.265-0.141-3.15,4.696,0,5c13.257,1.279,18.484,17.182,19.346,28.424
			c0.775,10.105-1.93,26.812-15.346,25.576c-2.629-0.242-3.2,3.422-1.262,4.659c8.948,5.71,15.998,14.944,13.838,26.065
			c-2.082,10.718-12.437,16.971-22.576,18.277c-1.271,0.164-2.607,1.015-2.5,2.5c0.533,7.381,2.84,17.025-6.4,19.108
			c-13.328,3.005-23.993-6.588-30.881-16.757c-15.323-22.62-12.47-51.496-2.808-75.686c0.634-1.588-0.941-3.098-2.411-3.165
			c-32.764-1.482-12.251-56.761,3.262-68.341c1.829-1.365,1.482-3.707-0.597-4.569c-7.994-3.314-14.889-8.344-18.746-16.253
			c-3.269-6.705-3.046-14.78-1.824-21.944c2.688-15.758,10.742-30.406,18.564-44.13c0.515-0.903,0.474-2.322-0.391-3.03
			c-3.935-3.217-7.496-6.843-10.741-10.752c-4.535-5.463-6.41-10.696-4.433-17.693c2.952-10.443,12.121-18.398,13.274-29.521
			c0.293-2.826,0.781-7.122-0.71-9.778c-1.947-3.467-4.234-6.981-6.463-10.306c-7.569-11.291-9.254-26.838-9.124-40.13
			c0.066-6.721,1.123-12.95,3.892-19.07c2.537-5.607,5.478-10.998,7.696-16.75c1.729-4.485,2.999-9.837,2.009-14.645
			c-0.93-4.514-3.961-7.194-7.6-9.736c-4.286-2.993-7.164-5.618-8.882-10.664c-1.704-5.004-2.867-10.362-3.515-15.604
			c-0.454-3.676,1.434-6.266,3.461-9.202c2.834-4.105,6.117-7.901,9.21-11.809c2.579-3.258,9.281-10.077,6.816-14.834
			c-1.645-3.176-4.916-4.229-8.127-5.243c-5.322-1.681-7.695-4.302-7.413-9.951c0.257-5.128,1.828-10.248,3.014-15.218
			c1.127-4.723,1.813-9.512,3.179-14.184c2.945-10.075,9.942-17.011,17.956-23.375c1.24-0.985,0.82-3.241-0.506-3.926
			c-12.469-6.445-20.6-16.84-21.025-31.141c-0.355-11.946,4.437-23.83,10.422-33.939c0.524-0.886,0.471-2.341-0.391-3.03
			c-8.174-6.536-13.281-14.407-10.127-25.011c3.076-10.341,11.598-19.144,18.627-26.954C57.918,36.379,54.394,32.831,52.232,35.232
			L52.232,35.232z"/>
	</g>
</g>
<circle fill="none" stroke="#ED1F24" stroke-width="3" stroke-miterlimit="10" cx="412.532" cy="201.368" r="50"/>
<polygon fill="#ED1F24" stroke="#ED1F24" stroke-miterlimit="10" points="389.209,178.045 355,162.757 369.057,157.893 
	373.738,144.019 "/>
<polygon fill="#ED1F24" stroke="#ED1F24" stroke-miterlimit="10" points="389.371,224.346 374.082,258.555 369.218,244.498 
	355.344,239.817 "/>
<polygon fill="#ED1F24" stroke="#ED1F24" stroke-miterlimit="10" points="435.421,224.44 469.63,239.728 455.574,244.593 
	450.892,258.467 "/>
<polygon fill="#ED1F24" stroke="#ED1F24" stroke-miterlimit="10" points="435.604,178.478 450.892,144.269 455.757,158.326 
	469.63,163.007 "/>
<circle fill="#ED1F24" stroke="#ED1F24" stroke-width="3" stroke-miterlimit="10" cx="412.532" cy="201.368" r="5"/>
</svg>
